<mxfile host="app.diagrams.net" modified="2023-06-21T11:57:18.728Z" agent="Mozilla/5.0 (Windows NT 10.0; Win64; x64) AppleWebKit/537.36 (KHTML, like Gecko) Chrome/114.0.0.0 Safari/537.36" version="21.5.0" etag="hwY_MQrZwcbgv7JTAh-N" type="github">
  <diagram name="ページ1" id="Q5fcUhF41YuOd0CQXgUa">
    <mxGraphModel>
      <root>
        <mxCell id="0" />
        <mxCell id="1" parent="0" />
      </root>
    </mxGraphModel>
  </diagram>
</mxfile>
